<mxfile host="app.diagrams.net" agent="Mozilla/5.0 (Windows NT 10.0; Win64; x64) AppleWebKit/537.36 (KHTML, like Gecko) Chrome/124.0.0.0 YaBrowser/24.6.0.0 Safari/537.36" version="24.7.6">
  <diagram name="Страница — 1" id="2XSi4d0-velNH9NINud8">
    <mxGraphModel dx="2427" dy="827" grid="1" gridSize="10" guides="1" tooltips="1" connect="1" arrows="1" fold="1" page="1" pageScale="1" pageWidth="827" pageHeight="1169" math="0" shadow="0">
      <root>
        <mxCell id="0" />
        <mxCell id="1" parent="0" />
        <mxCell id="0nYi7kRS2U7Nnzy2I1Gx-1" value="&amp;nbsp;Собственные изделия, внутренний документооборот" style="shape=cylinder3;whiteSpace=wrap;html=1;boundedLbl=1;backgroundOutline=1;size=15;" parent="1" vertex="1">
          <mxGeometry x="120" y="40" width="100" height="110" as="geometry" />
        </mxCell>
        <mxCell id="0nYi7kRS2U7Nnzy2I1Gx-5" value="ERP-система Lexema" style="verticalLabelPosition=bottom;verticalAlign=top;html=1;shape=mxgraph.basic.pie;startAngle=0.8237918088252166;endAngle=0.44417991335581997;rotation=0;" parent="1" vertex="1">
          <mxGeometry x="-80" y="45" width="100" height="100" as="geometry" />
        </mxCell>
        <mxCell id="0nYi7kRS2U7Nnzy2I1Gx-6" value="Пользователь" style="shape=umlActor;verticalLabelPosition=bottom;verticalAlign=top;html=1;outlineConnect=0;" parent="1" vertex="1">
          <mxGeometry x="-190" y="210" width="30" height="60" as="geometry" />
        </mxCell>
        <mxCell id="0nYi7kRS2U7Nnzy2I1Gx-8" value="Покупные изделия, склад, бухгалтерия" style="shape=cylinder3;whiteSpace=wrap;html=1;boundedLbl=1;backgroundOutline=1;size=15;" parent="1" vertex="1">
          <mxGeometry x="120" y="190" width="100" height="110" as="geometry" />
        </mxCell>
        <mxCell id="0nYi7kRS2U7Nnzy2I1Gx-9" value="ERP-система 1С" style="verticalLabelPosition=bottom;verticalAlign=top;html=1;shape=mxgraph.basic.pie;startAngle=0.8237918088252166;endAngle=0.44417991335581997;rotation=0;" parent="1" vertex="1">
          <mxGeometry x="-70" y="195" width="100" height="100" as="geometry" />
        </mxCell>
        <mxCell id="0nYi7kRS2U7Nnzy2I1Gx-11" value="Конструкторская&amp;nbsp;&lt;div&gt;документация&lt;/div&gt;" style="shape=cylinder3;whiteSpace=wrap;html=1;boundedLbl=1;backgroundOutline=1;size=15;" parent="1" vertex="1">
          <mxGeometry x="120" y="330" width="100" height="110" as="geometry" />
        </mxCell>
        <mxCell id="0nYi7kRS2U7Nnzy2I1Gx-12" value="Система управления&lt;div&gt;инженерными данными&lt;/div&gt;" style="verticalLabelPosition=bottom;verticalAlign=top;html=1;shape=mxgraph.basic.pie;startAngle=0.8237918088252166;endAngle=0.44417991335581997;rotation=0;" parent="1" vertex="1">
          <mxGeometry x="-70" y="350" width="100" height="100" as="geometry" />
        </mxCell>
        <mxCell id="HvDWaqEd5P-9uLaaN1Mr-1" value="" style="endArrow=none;html=1;rounded=0;" edge="1" parent="1">
          <mxGeometry width="50" height="50" relative="1" as="geometry">
            <mxPoint x="220" y="100" as="sourcePoint" />
            <mxPoint x="320" y="100" as="targetPoint" />
          </mxGeometry>
        </mxCell>
        <mxCell id="HvDWaqEd5P-9uLaaN1Mr-2" value="" style="endArrow=none;html=1;rounded=0;exitX=1.007;exitY=0.455;exitDx=0;exitDy=0;exitPerimeter=0;" edge="1" parent="1" source="0nYi7kRS2U7Nnzy2I1Gx-8">
          <mxGeometry width="50" height="50" relative="1" as="geometry">
            <mxPoint x="390" y="260" as="sourcePoint" />
            <mxPoint x="320" y="240" as="targetPoint" />
          </mxGeometry>
        </mxCell>
        <mxCell id="HvDWaqEd5P-9uLaaN1Mr-3" value="" style="endArrow=none;html=1;rounded=0;" edge="1" parent="1">
          <mxGeometry width="50" height="50" relative="1" as="geometry">
            <mxPoint x="220" y="390" as="sourcePoint" />
            <mxPoint x="320" y="390" as="targetPoint" />
          </mxGeometry>
        </mxCell>
        <mxCell id="HvDWaqEd5P-9uLaaN1Mr-4" value="" style="endArrow=none;html=1;rounded=0;" edge="1" parent="1">
          <mxGeometry width="50" height="50" relative="1" as="geometry">
            <mxPoint x="320" y="100" as="sourcePoint" />
            <mxPoint x="320" y="390" as="targetPoint" />
            <Array as="points">
              <mxPoint x="320" y="250" />
            </Array>
          </mxGeometry>
        </mxCell>
        <mxCell id="HvDWaqEd5P-9uLaaN1Mr-6" value="" style="endArrow=classic;html=1;rounded=0;entryX=-0.003;entryY=0.464;entryDx=0;entryDy=0;entryPerimeter=0;" edge="1" parent="1" target="HvDWaqEd5P-9uLaaN1Mr-8">
          <mxGeometry width="50" height="50" relative="1" as="geometry">
            <mxPoint x="320" y="240" as="sourcePoint" />
            <mxPoint x="410" y="240" as="targetPoint" />
          </mxGeometry>
        </mxCell>
        <mxCell id="HvDWaqEd5P-9uLaaN1Mr-7" value="ETL" style="text;html=1;align=center;verticalAlign=middle;resizable=0;points=[];autosize=1;strokeColor=none;fillColor=none;" vertex="1" parent="1">
          <mxGeometry x="340" y="190" width="50" height="30" as="geometry" />
        </mxCell>
        <mxCell id="HvDWaqEd5P-9uLaaN1Mr-8" value="Хранилище данных" style="shape=cylinder3;whiteSpace=wrap;html=1;boundedLbl=1;backgroundOutline=1;size=15;" vertex="1" parent="1">
          <mxGeometry x="420" y="170" width="140" height="150" as="geometry" />
        </mxCell>
        <mxCell id="HvDWaqEd5P-9uLaaN1Mr-9" value="" style="endArrow=classic;startArrow=classic;html=1;rounded=0;exitX=0.967;exitY=0.435;exitDx=0;exitDy=0;exitPerimeter=0;entryX=0.017;entryY=0.577;entryDx=0;entryDy=0;entryPerimeter=0;" edge="1" parent="1" source="0nYi7kRS2U7Nnzy2I1Gx-12" target="0nYi7kRS2U7Nnzy2I1Gx-11">
          <mxGeometry width="50" height="50" relative="1" as="geometry">
            <mxPoint x="80" y="350" as="sourcePoint" />
            <mxPoint x="130" y="300" as="targetPoint" />
          </mxGeometry>
        </mxCell>
        <mxCell id="HvDWaqEd5P-9uLaaN1Mr-11" value="" style="endArrow=classic;startArrow=classic;html=1;rounded=0;exitX=1.042;exitY=0.485;exitDx=0;exitDy=0;exitPerimeter=0;entryX=0;entryY=0.5;entryDx=0;entryDy=0;entryPerimeter=0;" edge="1" parent="1" source="0nYi7kRS2U7Nnzy2I1Gx-9" target="0nYi7kRS2U7Nnzy2I1Gx-8">
          <mxGeometry width="50" height="50" relative="1" as="geometry">
            <mxPoint x="80" y="350" as="sourcePoint" />
            <mxPoint x="130" y="300" as="targetPoint" />
          </mxGeometry>
        </mxCell>
        <mxCell id="HvDWaqEd5P-9uLaaN1Mr-12" value="" style="endArrow=classic;startArrow=classic;html=1;rounded=0;exitX=0.995;exitY=0.491;exitDx=0;exitDy=0;exitPerimeter=0;entryX=0;entryY=0.5;entryDx=0;entryDy=0;entryPerimeter=0;" edge="1" parent="1" source="0nYi7kRS2U7Nnzy2I1Gx-5" target="0nYi7kRS2U7Nnzy2I1Gx-1">
          <mxGeometry width="50" height="50" relative="1" as="geometry">
            <mxPoint x="80" y="350" as="sourcePoint" />
            <mxPoint x="130" y="300" as="targetPoint" />
          </mxGeometry>
        </mxCell>
        <mxCell id="HvDWaqEd5P-9uLaaN1Mr-14" value="Инструменты бизнес-аналитики" style="rounded=0;whiteSpace=wrap;html=1;" vertex="1" parent="1">
          <mxGeometry x="650" y="210" width="120" height="60" as="geometry" />
        </mxCell>
        <mxCell id="HvDWaqEd5P-9uLaaN1Mr-15" value="" style="endArrow=classic;html=1;rounded=0;exitX=0;exitY=0.5;exitDx=0;exitDy=0;entryX=1.004;entryY=0.464;entryDx=0;entryDy=0;entryPerimeter=0;" edge="1" parent="1" source="HvDWaqEd5P-9uLaaN1Mr-14" target="HvDWaqEd5P-9uLaaN1Mr-8">
          <mxGeometry width="50" height="50" relative="1" as="geometry">
            <mxPoint x="560" y="240" as="sourcePoint" />
            <mxPoint x="570" y="270" as="targetPoint" />
          </mxGeometry>
        </mxCell>
      </root>
    </mxGraphModel>
  </diagram>
</mxfile>
